<svg xmlns="http://www.w3.org/2000/svg" width="1600" height="900" viewBox="0 0 1600 900"><defs><marker id="arrow" markerWidth="8" markerHeight="8" refX="7" refY="4" orient="auto"><path d="M0,0 L8,4 L0,8 Z" fill="#64748b"/></marker></defs><rect width="1600" height="900" fill="#ffffff"/><g font-family="Aptos, Inter, Arial, sans-serif"><text x="45" y="60" fill="#0a192f" font-size="38" font-weight="700">ProofCraft architecture</text><text x="45" y="98" fill="#475569" font-size="23" font-weight="400">Browser execution, server-side evidence and human review</text>
<rect x="30" y="145" width="350" height="620" rx="12" fill="#f8fafc"/>
<rect x="410" y="145" width="690" height="620" rx="12" fill="#f0fdfa"/>
<rect x="1170" y="145" width="400" height="620" rx="12" fill="#f8fafc"/>
<text x="50" y="182" fill="#64748b" font-size="18" font-weight="650">CANDIDATE / REVIEWER</text><text x="435" y="182" fill="#0d9488" font-size="18" font-weight="650">NEXT.JS APPLICATION SERVER</text><text x="1190" y="182" fill="#64748b" font-size="18" font-weight="650">STORAGE / EXTERNAL SERVICES</text>
<rect x="50" y="210" width="310" height="190" rx="8" fill="#fff" stroke="#cbd5e1" stroke-width="2" /><text x="70" y="242" fill="#0a192f" font-size="24" font-weight="650">Candidate workspace</text><text x="70" y="275" fill="#475569" font-size="19" font-weight="400">Editor, AI chat and preview</text><text x="70" y="303" fill="#475569" font-size="19" font-weight="400">WebContainer runtime</text><text x="70" y="331" fill="#475569" font-size="19" font-weight="400">Virtual files and app execution</text><text x="70" y="359" fill="#475569" font-size="19" font-weight="400">SQLite exercise tools, if used</text>
<rect x="50" y="535" width="310" height="175" rx="8" fill="#fff" stroke="#cbd5e1" stroke-width="2" /><text x="70" y="567" fill="#0a192f" font-size="24" font-weight="650">Human mentor</text><text x="70" y="600" fill="#475569" font-size="19" font-weight="400">Reviews a task OR assessment</text><text x="70" y="628" fill="#475569" font-size="19" font-weight="400">Inspects evidence and uncertainty</text><text x="70" y="656" fill="#475569" font-size="19" font-weight="400">Confirms or records a correction</text>
<rect x="435" y="210" width="640" height="100" rx="8" fill="#fff" stroke="#cbd5e1" stroke-width="2" /><text x="455" y="242" fill="#0a192f" font-size="24" font-weight="650">1  Task preparation</text><text x="455" y="275" fill="#475569" font-size="19" font-weight="400">JD intake / task resolution / profile, task and rubric</text>
<rect x="435" y="335" width="640" height="100" rx="8" fill="#fff" stroke="#cbd5e1" stroke-width="2" /><text x="455" y="367" fill="#0a192f" font-size="24" font-weight="650">2  Candidate session</text><text x="455" y="400" fill="#475569" font-size="19" font-weight="400">Assistant replies / validated writes / captured interactions</text>
<rect x="435" y="460" width="640" height="125" rx="8" fill="#fff" stroke="#cbd5e1" stroke-width="2" /><text x="455" y="492" fill="#0a192f" font-size="24" font-weight="650">3  Assessment</text><text x="455" y="525" fill="#475569" font-size="19" font-weight="400">Transcript + stored files + rubric → AI proposal</text><text x="455" y="553" fill="#475569" font-size="19" font-weight="400">Deterministic checks / weighted score / review reasons</text>
<rect x="435" y="630" width="640" height="105" rx="8" fill="#fff" stroke="#cbd5e1" stroke-width="2" /><text x="455" y="662" fill="#0a192f" font-size="24" font-weight="650">4  Report and review workflow</text><text x="455" y="695" fill="#475569" font-size="19" font-weight="400">Saved evaluation, mentor action and viewer-specific output</text>
<rect x="1190" y="220" width="350" height="165" rx="8" fill="#fff" stroke="#cbd5e1" stroke-width="2" /><text x="1210" y="252" fill="#0a192f" font-size="24" font-weight="650">Supabase PostgreSQL</text><text x="1210" y="285" fill="#475569" font-size="19" font-weight="400">Tasks, rubrics and sessions</text><text x="1210" y="313" fill="#475569" font-size="19" font-weight="400">Transcript and file snapshots</text><text x="1210" y="341" fill="#475569" font-size="19" font-weight="400">Evaluations and mentor reviews</text>
<rect x="1190" y="450" width="350" height="120" rx="8" fill="#fff" stroke="#cbd5e1" stroke-width="2" /><text x="1210" y="482" fill="#0a192f" font-size="24" font-weight="650">Model provider API</text><text x="1210" y="515" fill="#475569" font-size="19" font-weight="400">Generation, assistant, evaluation</text><text x="1210" y="543" fill="#475569" font-size="19" font-weight="400">Selected data leaves the app</text>
<rect x="1190" y="630" width="350" height="125" rx="8" fill="#fff" stroke="#0d9488" stroke-width="2" stroke-dasharray="8 5"/><text x="1210" y="662" fill="#0a192f" font-size="24" font-weight="650">PROPOSED: Jev shadow</text><text x="1210" y="695" fill="#475569" font-size="19" font-weight="400">Record recommendation only</text><text x="1210" y="723" fill="#475569" font-size="19" font-weight="400">No scoring or routing authority</text>
<path d="M360 260 H430" fill="none" stroke="#64748b" stroke-width="2.5" marker-end="url(#arrow)" /><path d="M755 310 V330" fill="none" stroke="#64748b" stroke-width="2.5" marker-end="url(#arrow)" /><path d="M755 435 V455" fill="none" stroke="#64748b" stroke-width="2.5" marker-end="url(#arrow)" /><path d="M755 585 V625" fill="none" stroke="#64748b" stroke-width="2.5" marker-end="url(#arrow)" />
<path d="M1075 360 H1130 V300 H1185" fill="none" stroke="#64748b" stroke-width="2.5" marker-end="url(#arrow)" /><text x="1088" y="285" fill="#475569" font-size="16" font-weight="400">save/load</text>
<path d="M1075 520 H1185" fill="none" stroke="#64748b" stroke-width="2.5" marker-end="url(#arrow)" /><text x="1090" y="503" fill="#475569" font-size="16" font-weight="400">inference</text>
<path d="M360 650 H430" fill="none" stroke="#64748b" stroke-width="2.5" marker-end="url(#arrow)" /><path d="M435 690 H365" fill="none" stroke="#64748b" stroke-width="2.5" marker-end="url(#arrow)" />
<path d="M1075 552 H1117 V695 H1185" fill="none" stroke="#0d9488" stroke-width="2.5" marker-end="url(#arrow)" stroke-dasharray="7 5"/>
<text x="55" y="445" fill="#475569" font-size="17" font-weight="400">JD, messages and submission</text><text x="55" y="471" fill="#475569" font-size="17" font-weight="400">Recorded actions are evidence.</text><text x="55" y="497" fill="#475569" font-size="17" font-weight="400">They are not proof of identity.</text>
<text x="435" y="802" fill="#0a192f" font-size="20" font-weight="550">Solid: inspected application structure     Dashed: proposed shadow integration</text>
<text x="435" y="836" fill="#475569" font-size="19" font-weight="400">Security, durability and exact routing must be verified on the chosen release.</text>
<text x="45" y="875" fill="#0a192f" font-size="18" font-weight="650">ProofCraft</text><text x="1000" y="875" fill="#475569" font-size="18" font-weight="400">Architecture overview · 8 October 2026</text>
</g></svg>
